<?xml version="1.0" encoding="UTF-8"?>
<svg width="24px" height="24px" viewBox="0 0 24 24" version="1.1" xmlns="http://www.w3.org/2000/svg">
    <g stroke="none" stroke-width="1" fill="none" fill-rule="evenodd">
        <path d="M20.64,12.2045 C20.64,11.5664 20.5827,10.9527 20.4764,10.3636 L12,10.3636 L12,14.8455 L16.8436,14.8455 C16.635,15.97 15.8582,16.9232 14.6591,17.5614 L14.6591,20.1182 L17.9564,20.1182 C19.6582,18.5564 20.64,16.3864 20.64,12.2045 Z" fill="#4285F4"/>
        <path d="M12,21 C14.43,21 16.4673,20.1941 17.9564,18.1182 L14.6591,16.5614 C13.7414,17.1014 12.5782,17.4205 12,17.4205 C9.65591,17.4205 7.67182,15.8373 6.96409,13.71 L3.68682,13.71 L3.68682,16.2477 C5.17727,18.4909 7.69091,20 12,20 L12,21 Z" fill="#34A853"/>
        <path d="M6.96409,13.71 C6.78409,13.17 6.68182,12.5932 6.68182,12 C6.68182,11.4068 6.78409,10.83 6.96409,10.29 L6.96409,7.75227 L3.68682,7.75227 C3.02455,9.11545 2.68182,10.5909 2.68182,12 C2.68182,13.4091 3.02455,14.8845 3.68682,16.2477 L6.96409,13.71 Z" fill="#FBBC05"/>
        <path d="M12,6.57955 C13.3214,6.57955 14.5077,7.03364 15.4405,7.92545 L18.3618,5.00409 C16.4673,3.20364 14.43,2.5 12,2.5 C7.69091,2.5 5.17727,4.00909 3.68682,6.25227 L6.96409,8.79 C7.67182,6.66273 9.65591,5.07955 12,5.07955 L12,6.57955 Z" fill="#EA4335"/>
    </g>
</svg> 